<svg data-v-423bf9ae="" xmlns="http://www.w3.org/2000/svg" viewBox="0 0 489.9183839697082 60" class="font"><!----><!----><!----><g data-v-423bf9ae="" id="e566209c-a56d-46e8-8441-a1780aaf3a48" fill="black" transform="matrix(6.1224488604322,0,0,6.1224488604322,-8.93876860291681,-21.428570534675544)"><path d="M1.46 12.96C1.46 13.15 1.60 13.30 1.78 13.30L1.79 13.30L1.83 13.30L4.59 13.30C6.13 13.30 7.39 12.05 7.39 10.50C7.39 9.27 6.58 8.23 5.47 7.85C6.03 7.41 6.41 6.72 6.41 5.95C6.41 4.59 5.32 3.50 3.98 3.50L1.83 3.50L1.79 3.50C1.61 3.50 1.46 3.65 1.46 3.84ZM2.14 12.61L2.14 8.39L4.59 8.39C5.75 8.39 6.69 9.34 6.71 10.50C6.69 11.68 5.75 12.61 4.59 12.61ZM2.14 7.69L2.14 4.19L3.98 4.19C4.94 4.19 5.73 4.97 5.73 5.95C5.73 6.90 4.94 7.69 3.98 7.69ZM15.04 6.44C14.85 6.44 14.70 6.58 14.70 6.78L14.70 7.78C14.11 6.97 13.17 6.44 12.12 6.44C10.32 6.44 8.88 7.99 8.88 9.87C8.88 11.75 10.32 13.30 12.12 13.30C13.17 13.30 14.11 12.75 14.70 11.94L14.70 12.96C14.70 13.15 14.85 13.30 15.04 13.30C15.22 13.30 15.37 13.15 15.37 12.96L15.37 6.78C15.37 6.58 15.22 6.44 15.04 6.44ZM12.12 12.63C10.72 12.63 9.55 11.41 9.55 9.87C9.55 8.33 10.72 7.10 12.12 7.10C13.54 7.10 14.70 8.33 14.70 9.87C14.70 11.41 13.54 12.63 12.12 12.63ZM18.28 12.96C18.28 13.16 18.44 13.30 18.63 13.30C18.80 13.30 18.96 13.16 18.96 12.96L18.96 9.95C18.96 9.93 18.96 9.90 18.98 9.84C19.08 9.56 19.35 8.86 19.81 8.25C20.29 7.63 20.90 7.13 21.80 7.13C21.98 7.13 22.13 6.97 22.13 6.79C22.13 6.59 21.98 6.45 21.80 6.45C20.48 6.45 19.57 7.32 19.05 8.13C19.01 8.19 18.98 8.25 18.96 8.30L18.96 6.79C18.96 6.59 18.80 6.45 18.63 6.45C18.44 6.45 18.28 6.59 18.28 6.79L18.28 12.96ZM24.43 12.96C24.43 13.15 24.58 13.30 24.77 13.30C24.96 13.30 25.12 13.15 25.12 12.96L25.12 11.40L26.52 10.00L29.15 13.17C29.20 13.27 29.32 13.30 29.41 13.30C29.48 13.30 29.57 13.29 29.64 13.23C29.78 13.09 29.79 12.89 29.67 12.74L27.01 9.51L29.65 6.86C29.79 6.72 29.79 6.51 29.65 6.38C29.51 6.24 29.32 6.24 29.18 6.38L25.12 10.43L25.12 3.84C25.12 3.65 24.96 3.50 24.77 3.50C24.58 3.50 24.43 3.65 24.43 3.84L24.43 12.96ZM32.42 12.96C32.42 13.15 32.58 13.30 32.76 13.30C32.96 13.30 33.11 13.15 33.11 12.96L33.11 8.75L37.23 8.75C37.42 8.75 37.58 8.60 37.58 8.41C37.58 8.22 37.42 8.06 37.23 8.06L33.11 8.06L33.11 4.19L37.81 4.19C38.00 4.19 38.15 4.03 38.15 3.84C38.15 3.65 38.00 3.50 37.81 3.50L32.80 3.50L32.75 3.50C32.56 3.51 32.42 3.65 32.42 3.84L32.42 12.96ZM40.74 12.96C40.74 13.16 40.89 13.30 41.09 13.30C41.26 13.30 41.41 13.16 41.41 12.96L41.41 9.95C41.41 9.93 41.41 9.90 41.44 9.84C41.54 9.56 41.80 8.86 42.27 8.25C42.74 7.63 43.36 7.13 44.25 7.13C44.44 7.13 44.59 6.97 44.59 6.79C44.59 6.59 44.44 6.45 44.25 6.45C42.94 6.45 42.03 7.32 41.51 8.13C41.47 8.19 41.44 8.25 41.41 8.30L41.41 6.79C41.41 6.59 41.26 6.45 41.09 6.45C40.89 6.45 40.74 6.59 40.74 6.79L40.74 12.96ZM46.90 12.96L46.90 12.96C46.90 13.15 47.05 13.30 47.24 13.30L47.24 13.30C47.43 13.30 47.59 13.15 47.59 12.96L47.59 6.78L47.59 6.78C47.59 6.58 47.43 6.44 47.24 6.44L47.24 6.44C47.05 6.44 46.90 6.58 46.90 6.78ZM46.90 4.86L46.90 4.86C46.90 5.05 47.05 5.22 47.24 5.22L47.24 5.22C47.43 5.22 47.59 5.05 47.59 4.86L47.59 4.54L47.59 4.54C47.59 4.35 47.43 4.20 47.24 4.20L47.24 4.20C47.05 4.20 46.90 4.35 46.90 4.54ZM53.66 13.30C54.82 13.30 55.85 12.68 56.43 11.75C56.53 11.58 56.48 11.38 56.32 11.27C56.18 11.19 55.97 11.21 55.87 11.38C55.41 12.15 54.57 12.63 53.66 12.63C52.25 12.63 51.07 11.49 51.00 10.00L56.63 10.00C56.81 10.00 56.97 9.87 56.97 9.69L56.97 9.65L56.97 9.63C56.83 7.84 55.43 6.44 53.66 6.44C51.81 6.44 50.33 7.98 50.33 9.88C50.33 11.76 51.81 13.30 53.66 13.30ZM53.66 7.11C54.92 7.11 56.01 8.05 56.24 9.34L51.04 9.34C51.30 8.04 52.37 7.11 53.66 7.11ZM64.25 12.96C64.25 13.16 64.40 13.30 64.58 13.30C64.76 13.30 64.92 13.16 64.92 12.96L64.92 9.24C64.92 7.71 63.67 6.45 62.13 6.45C61.28 6.45 60.51 6.85 60.00 7.45L60.00 6.79C60.00 6.61 59.86 6.45 59.68 6.45C59.49 6.45 59.35 6.61 59.35 6.79L59.35 9.13L59.35 9.24L59.35 12.96L59.35 13.05C59.35 13.05 59.36 13.06 59.36 13.08C59.36 13.09 59.36 13.10 59.37 13.12C59.42 13.20 59.50 13.27 59.60 13.30L59.68 13.30C59.78 13.30 59.88 13.26 59.93 13.17C59.98 13.13 59.99 13.08 60.00 13.02L60.00 12.96L60.00 9.24C60.03 8.08 60.97 7.13 62.13 7.13C63.31 7.13 64.25 8.08 64.25 9.24L64.25 12.96ZM73.14 12.96C73.14 13.15 73.29 13.30 73.49 13.30C73.67 13.30 73.82 13.15 73.82 12.96L73.82 9.88L73.82 9.74L73.82 3.84C73.82 3.65 73.67 3.50 73.49 3.50C73.29 3.50 73.14 3.65 73.14 3.84L73.14 7.78C72.53 6.97 71.58 6.44 70.50 6.44C68.66 6.44 67.19 7.98 67.19 9.88C67.19 11.76 68.66 13.30 70.50 13.30C71.58 13.30 72.53 12.78 73.14 11.97ZM70.50 12.61C69.06 12.61 67.87 11.40 67.87 9.88C67.87 8.36 69.06 7.13 70.50 7.13C71.92 7.13 73.08 8.30 73.14 9.77L73.14 10.00C73.08 11.45 71.92 12.61 70.50 12.61ZM76.45 12.32L76.45 12.32C77.01 12.77 77.88 13.29 78.99 13.30L78.99 13.30C79.66 13.30 80.22 13.10 80.70 12.75L80.70 12.75C81.16 12.40 81.48 11.94 81.48 11.37L81.48 11.37C81.48 10.79 81.16 10.26 80.71 9.97L80.71 9.97C80.23 9.70 79.70 9.51 79.04 9.41L79.02 9.41L79.02 9.41C78.39 9.31 77.92 9.14 77.62 8.93L77.62 8.93C77.35 8.72 77.22 8.53 77.22 8.25L77.22 8.25C77.22 7.97 77.38 7.69 77.66 7.46L77.66 7.46C77.95 7.22 78.40 7.07 78.96 7.07L78.96 7.07C79.63 7.07 80.14 7.42 80.64 7.76L80.64 7.76C80.79 7.85 81.00 7.81 81.10 7.66L81.10 7.66C81.20 7.50 81.16 7.29 81.00 7.18L81.00 7.18C80.47 6.85 79.84 6.44 78.96 6.44L78.96 6.44C78.26 6.44 77.69 6.62 77.28 6.90L77.28 6.90C76.85 7.22 76.54 7.70 76.54 8.25L76.54 8.25C76.54 8.78 76.85 9.23 77.28 9.48L77.28 9.48C77.67 9.76 78.22 9.90 78.83 10.01L78.86 10.02L78.86 10.02C79.53 10.14 80.02 10.30 80.32 10.53L80.32 10.53C80.67 10.82 80.79 11.05 80.81 11.37L80.81 11.37C80.81 11.68 80.63 11.98 80.29 12.21L80.29 12.21C79.98 12.46 79.52 12.63 78.99 12.63L78.99 12.63C78.12 12.63 77.36 12.18 76.89 11.83L76.89 11.83C76.73 11.70 76.52 11.73 76.41 11.87L76.41 11.87C76.30 12.01 76.31 12.19 76.45 12.32Z"></path></g><!----><!----></svg>